<?xml version="1.0" encoding="utf-8"?>
<!-- Generator: Adobe Illustrator 25.4.1, SVG Export Plug-In . SVG Version: 6.00 Build 0)  -->
<svg version="1.1" id="Capa_1" xmlns="http://www.w3.org/2000/svg" xmlns:xlink="http://www.w3.org/1999/xlink" x="0px" y="0px"
	 viewBox="0 0 612 315" style="enable-background:new 0 0 612 315;" xml:space="preserve">
<path d="M304.52,143.92c0,2.99,0,5.59,0,8.62c-1.22,0-2.35,0-3.48,0c-16.02,0.01-32.05-0.04-48.07,0.09
	c-2.25,0.02-4.56,0.64-6.73,1.34c-8.73,2.84-17.35,4.14-25.63-1.3c-4.9-3.23-7.49-8.2-9.81-13.58c-3.8,3.08-7.3,6.3-11.17,8.97
	c-12.44,8.59-26.13,10.05-39.83,4.37c-16.47-6.83-15.2-24.72-7.74-34.38c5.24-6.79,12.53-10.43,20.48-12.58
	c11.23-3.03,22.59-5.6,33.94-8.13c2.83-0.63,4.25-1.42,3.91-4.64c-0.4-3.78-0.02-7.64-0.41-11.42c-0.8-7.95-5.61-13.24-13.48-14.78
	c-5.98-1.17-11.83-0.59-17.26,2.5c-3.07,1.74-3.22,2.89-1.88,6.16c1.22,2.97,2.82,6.17,2.74,9.23c-0.2,7.75-6.48,12.4-14.42,11.42
	c-5.29-0.65-9.65-2.78-11.46-8.16c-2.06-6.11-0.36-11.51,3.89-16.12c7.08-7.67,16.23-11.3,26.29-12.84
	c10.95-1.67,21.69-0.59,32.35,2.55c11.73,3.45,18.29,13.82,18.5,25.32c0.27,14.42,0.13,28.84,0.22,43.26
	c0.06,10.07,4.52,14.38,14.7,13.92c2.8-0.13,5.7-0.84,8.28-1.94c4.21-1.8,6.44-4.98,6.39-9.96c-0.19-16.23-0.07-32.47-0.07-48.71
	c0-8.32-2.05-10.56-10.48-11.49c-1.35-0.15-2.69-0.32-4.11-0.49c0-2.74,0-5.34,0-8.21c12.18-0.68,24.19-1.35,36.83-2.05
	c0.97,6.45,1.92,12.75,2.93,19.5c1.47-1.64,2.83-3.12,4.15-4.64c8.26-9.52,18.19-15.79,31.22-15.98c13.89-0.2,23.4,6.43,28.01,19.51
	c0.2,0.58,0.43,1.16,0.8,2.17c2.27-2.59,4.26-5.01,6.41-7.27c8.75-9.21,18.98-15.22,32.2-14.48c15.79,0.88,25.64,10.21,27.21,26.03
	c0.54,5.46,0.54,10.99,0.58,16.49c0.08,10.71,0.12,21.43-0.07,32.13c-0.07,3.87,1.58,6.31,4.9,7.71c5.97,2.52,11.99,2.43,17.86-0.36
	c2.77-1.32,4.25-3.47,4.23-6.82c-0.1-17.51-0.05-35.02-0.05-52.53c0-7.22-3.36-10.7-10.58-10.98c-1.24-0.05-2.49-0.01-3.91-0.01
	c0-2.93,0-5.53,0-8.44c13.17-0.61,26.25-1.22,39.76-1.85c0,1.32,0.01,2.45,0,3.58c-0.1,8.99-0.29,17.99-0.29,26.98
	c0,9.42,0.23,18.84,0.26,28.26c0.02,4.77-0.25,9.53-0.27,14.3c-0.04,7.7,2.03,9.72,9.82,9.76c1.37,0.01,2.73,0,4.6,0
	c0,1.53,0,2.85,0,4.18c0,1.36,0,2.72,0,4.26c-35.46,0-70.64,0-106.06,0c0-2.68,0-5.36,0-8.58c2.33,0,4.63,0.12,6.93-0.02
	c5.17-0.31,7.51-2.75,7.52-7.86c0.03-14.01,0.06-28.02-0.03-42.02c-0.06-9.57-4.17-15.75-11.7-18.04
	c-8.12-2.47-17.17,0.63-22.1,7.86c-3.95,5.8-6.26,12.17-6.19,19.34c0.11,10.4,0.02,20.8,0.03,31.2c0.01,7.13,2.32,9.49,9.49,9.67
	c1.68,0.04,3.36,0.01,5.25,0.01c0,2.93,0,5.62,0,8.44c-18.28,0-36.47,0-54.83,0c0-2.8,0-5.4,0-8.61c2.88,0,5.72,0.17,8.53-0.04
	c4.24-0.32,6.41-2.88,6.41-7.13c-0.01-14.1,0.06-28.21-0.04-42.31c-0.05-6.63-1.9-12.59-7.73-16.53
	c-7.13-4.83-18.28-3.16-24.33,3.63c-5.11,5.74-7.98,12.26-7.77,20.19c0.28,10.92,0.06,21.86,0.07,32.79
	c0.01,6.63,2.4,9.16,9.11,9.53C301.02,144,302.69,143.92,304.52,143.92z M210.25,104.77c-8.62,0.99-16.6,2.41-24,5.97
	c-6.43,3.09-10.28,8.25-11.27,15.42c-1.23,8.91,3.05,15.46,10.79,16.44c9.47,1.21,18.74-4.29,22.24-13.26
	C211.06,121.53,210.27,113.38,210.25,104.77z"/>
<path d="M80.2,155.43c-9.34-2.22-17.52-6.05-24.62-12.33c-10.95-9.68-14.44-25.65-8.04-37.83c6.85-13.02,23.9-15.67,33.4-5.18
	c6.15,6.79,5.81,18.15-0.7,24.48c-2.99,2.91-6.56,3.69-10.54,3.16c-1.26-0.17-2.5-0.45-3.75-0.66c-5.24-0.91-7.75,1.88-6.06,6.99
	c0.55,1.65,1.55,3.3,2.74,4.58c8.64,9.29,27.84,10.27,37.32,1.87c6.23-5.52,8.17-13.03,8.44-20.92c0.34-9.85,0.16-19.72,0.18-29.58
	c0.02-9.75,0.01-19.5-0.01-29.25c-0.02-11.35,0-22.69-0.15-34.04c-0.06-4.74-2.72-7.08-7.85-7.21c-4.74-0.11-9.49-0.02-14.38-0.02
	c0-2.99,0-5.61,0-8.49c23.09,0,46.04,0,69.26,0c0,2.59,0,5.29,0,8.47c-2.63,0-5.35-0.03-8.06,0.01c-6.4,0.08-8.86,2.55-8.86,8.89
	c0,27.69-0.14,55.38,0.06,83.07c0.14,19.29-8.12,32.84-26.05,40.29c-0.36,0.15-0.66,0.46-1.13,0.8c4.54,1.2,9.02,1.98,13.21,3.55
	c26.43,9.89,41.87,29.05,46.29,56.75c3.18,19.96,0.23,39.04-10.98,56.28C143.11,294.98,113.2,306.5,83.49,298
	c-25.76-7.37-41.41-25.06-47.98-50.66c-4.36-17-3.82-34.15,2.58-50.6c7.42-19.06,20.65-32.76,39.92-40.28
	C78.76,156.16,79.47,155.78,80.2,155.43z M139.06,217.79c-0.47-5.35-0.82-12.85-1.87-20.26c-1.51-10.65-4.91-20.5-13.06-28.24
	c-12.15-11.54-34.48-10.48-45.05,2.43c-8.41,10.27-11.67,22.57-12.34,35.39c-0.69,13.19-0.5,26.45-0.06,39.65
	c0.29,8.68,2.17,17.19,6,25.16c8.12,16.92,24.55,22.63,40.26,17.54c11.36-3.68,17.62-12.76,21.23-23.68
	C139.11,250.87,138.98,235.38,139.06,217.79z"/>
<path d="M226.07,208.03c13.31-0.62,26.28-1.23,39.64-1.86c0,1.6,0,2.84,0,4.08c0,23.56,0,47.11,0,70.67c0,5.89,2.01,7.92,7.97,8.05
	c1.89,0.04,3.78,0.01,5.85,0.01c0,2.99,0,5.7,0,8.64c-36.27,0-72.48,0-108.92,0c0-2.78,0-5.47,0-8.64c1.84,0,3.6,0.02,5.36,0
	c6.36-0.07,8.97-2.65,9.01-9.22c0.07-11.35,0.02-22.71,0.02-34.06c0-19.42,0.01-38.83,0.01-58.25c0-9.22-3.38-12.58-12.69-12.62
	c-1.05,0-2.1,0-3.41,0c0-2.88,0-5.53,0-7.82c7.24-0.71,14.34-1.49,21.45-2.09c7.46-0.64,12.93-5.51,19.51-9.84c0,2.3,0,3.54,0,4.77
	c0,39.47,0,78.94,0,118.41c0,5.72,2.18,8.75,7.71,9.94c6.08,1.32,12.19,1.51,18.07-1.11c3.3-1.47,4.92-3.74,4.88-7.66
	c-0.18-17.08-0.07-34.16-0.06-51.25c0-8.42-3.08-11.56-11.42-11.64c-0.94-0.01-1.87,0-2.96,0
	C226.07,213.68,226.07,211.08,226.07,208.03z"/>
<path d="M468.42,253.32c-21.36,0-42.11,0-63.18,0c0.37,9.2,1.14,17.93,6.02,25.83c7.59,12.26,23.02,14.13,34.76,7.55
	c6.28-3.52,10.61-8.97,14.74-14.63c0.68-0.93,1.31-1.88,2-2.87c2.26,1.45,4.3,2.75,6.56,4.2c-7.39,13.53-17.67,23.3-33.53,25.73
	c-10.61,1.62-21.12,1.32-31.23-2.87c-16.68-6.92-26.12-19.67-28.19-37.31c-2.25-19.1,3.84-35.26,19.51-47.23
	c17.51-13.37,46.62-11.15,60.75,4.77c7.11,8.01,9.94,17.8,11.09,28.2C468.02,247.38,468.16,250.1,468.42,253.32z M405.28,244.86
	c10.68,0,20.84,0.12,31-0.06c4.1-0.07,6.06-2.12,6.71-6.23c0.97-6.12,0.09-12.05-2.68-17.56c-2.98-5.93-7.9-9.28-14.63-9.52
	c-6.66-0.24-11.65,2.78-14.86,8.51C406.58,227.58,405.7,235.95,405.28,244.86z"/>
<path d="M572.16,125.63c1.81,1.12,3.95,2.44,6.21,3.84c-8.62,16.26-21.52,25.74-40.09,26.56c-11.18,0.49-21.98-0.98-31.72-7.11
	c-12.26-7.72-19.19-18.91-21.08-33.11c-1.52-11.39-0.02-22.42,5.78-32.56c9.56-16.71,26.32-25.62,46-23.91
	c8.94,0.78,17.19,3.38,24.21,9.29c9.21,7.75,13.37,18.03,14.99,29.57c0.5,3.55,0.66,7.15,1,11.1c-21.17,0-42,0-63.25,0
	c0.63,12.01,1.63,23.36,11.18,31.86c9,8.01,25.93,7,35.43-2.52C564.84,134.62,568.32,130.07,572.16,125.63z M514.27,100.83
	c10.93,0,21.4,0.09,31.86-0.06c3.19-0.05,5.2-1.98,5.84-5.26c1.08-5.47,0.42-10.84-1.43-15.95c-2.55-7.03-7.54-11.43-15.28-11.99
	c-7.25-0.52-12.89,3.1-16.37,10.22C515.37,85.02,514.79,92.8,514.27,100.83z"/>
<path d="M468.85,216.23c0-2.92,0-5.33,0-8.17c12.68-0.69,25.2-1.37,38.1-2.08c0,8.99,0,17.63,0,26.27c0.27,0.06,0.53,0.11,0.8,0.17
	c0.69-1.9,1.33-3.81,2.09-5.69c3.87-9.62,9.8-17.18,20.07-20.65c8.86-3,18.64-0.76,23.75,5.69c4.6,5.82,4.28,15.37-0.7,20.48
	c-3.86,3.97-8.85,4.94-13.25,2.58c-4.53-2.43-7.24-8.21-6.06-13.21c0.38-1.63,1.26-3.15,1.64-4.78c0.27-1.14,0.55-2.77-0.03-3.48
	c-0.6-0.73-2.52-1.17-3.37-0.75c-2.5,1.23-5.13,2.59-7.03,4.55c-5.66,5.87-8.29,13.4-10.73,21c-3.73,11.6-3.7,23.56-3.55,35.54
	c0.03,2.44,0,4.88,0.01,7.32c0.02,5.92,2.07,7.94,8.09,7.97c3.61,0.02,7.21,0.03,10.82,0.05c0.21,0,0.41,0.09,0.9,0.2
	c0,2.63,0,5.33,0,8.34c-20.32,0-40.83,0-61.58,0c0-2.68,0-5.47,0-8.57c2.65,0,5.17,0.06,7.69-0.01c5.96-0.17,8.48-2.69,8.49-8.59
	c0.02-17.4,0.01-34.79-0.02-52.19c-0.01-8.3-3.71-11.93-12.1-11.98C471.58,216.22,470.32,216.23,468.85,216.23z"/>
<path d="M325.32,206.51c0,2.67,0,5.08,0,7.77c-2.57,0.12-5.09,0.08-7.56,0.4c-5.23,0.66-7.12,3.36-4.97,8.07
	c3.12,6.82,6.8,13.38,10.33,20c4.47,8.39,9.03,16.73,13.76,25.49c0.54-0.84,0.94-1.35,1.23-1.93c6.21-12.37,12.49-24.71,18.58-37.14
	c3.86-7.86,1.17-12.87-7.46-14.38c-1.33-0.23-2.68-0.34-4.18-0.52c0-2.68,0-5.17,0-7.83c12.83,0,25.49,0,38.32,0c0,2.6,0,5.1,0,7.76
	c-1.94,0.52-4.23,0.55-5.69,1.66c-2.7,2.05-5.71,4.34-7.2,7.24c-9.92,19.31-19.48,38.82-29.16,58.26
	c-2.31,4.65-4.69,9.26-6.95,13.94c-0.79,1.64-1.52,2.84-3.73,2.56c-2.11-0.27-4.06,0.39-5.51-2.34
	c-8.35-15.82-16.95-31.52-25.5-47.23c-4.66-8.56-9.43-17.05-14.05-25.64c-2.78-5.17-6.06-9.36-13.02-8.03c0-2.85,0-5.34,0-8.1
	C290.02,206.51,307.53,206.51,325.32,206.51z"/>
<path d="M250.84,196.66c-8.65-0.03-15.53-6.94-15.5-15.57c0.03-8.57,7.03-15.5,15.64-15.47c8.52,0.03,15.6,7.1,15.61,15.6
	C266.59,189.69,259.46,196.69,250.84,196.66z"/>
<path d="M474.26,36.96c-0.04,8.61-6.72,15.34-15.21,15.31c-8.71-0.03-15.98-7.1-15.93-15.49c0.04-8.51,7.23-15.54,15.93-15.59
	C467.42,21.14,474.3,28.28,474.26,36.96z"/>
</svg>
